HIERARCHY
ROOT Hips
{
  OFFSET 13.6774 106.653 -34.4427
  CHANNELS 6 Xposition Yposition Zposition Zrotation Xrotation Yrotation
  JOINT ToSpine
  {
    OFFSET -2.69724 7.43032 -0.144315
    CHANNELS 3 Zrotation Xrotation Yrotation
    JOINT Spine
    {
      OFFSET -0.0310711 10.7595 1.96963
      CHANNELS 3 Zrotation Xrotation Yrotation
      JOINT Spine1
      {
        OFFSET 19.9056 3.91189 0.764692
        CHANNELS 3 Zrotation Xrotation Yrotation
        JOINT Neck
        {
          OFFSET 25.9749 7.03908 -0.130764
          CHANNELS 3 Zrotation Xrotation Yrotation
          JOINT Head
          {
            OFFSET 9.52751 0.295786 -0.907742
            CHANNELS 3 Zrotation Xrotation Yrotation
            End Site
            {
              OFFSET 16.4037 0.713936 2.7358
            }
          }
        }
        JOINT LeftShoulder
        {
          OFFSET 17.7449 4.33886 11.7777
          CHANNELS 3 Zrotation Xrotation Yrotation
          JOINT LeftArm
          {
            OFFSET 0.911315 1.27913 9.80584
            CHANNELS 3 Zrotation Xrotation Yrotation
            JOINT LeftForeArm
            {
              OFFSET 28.6126 1.18197 -3.53199
              CHANNELS 3 Zrotation Xrotation Yrotation
              JOINT LeftHand
              {
                OFFSET 27.5088 0.0218783 0.327423
                CHANNELS 3 Zrotation Xrotation Yrotation
                End Site
                {
                  OFFSET 18.6038 -0.000155887 0.382096
                }
              }
            }
          }
        }
        JOINT RightShoulder
        {
          OFFSET 17.1009 2.89543 -12.2328
          CHANNELS 3 Zrotation Xrotation Yrotation
          JOINT RightArm
          {
            OFFSET 1.4228 0.178766 -10.211
            CHANNELS 3 Zrotation Xrotation Yrotation
            JOINT RightForeArm
            {
              OFFSET 28.733 1.87905 2.64907
              CHANNELS 3 Zrotation Xrotation Yrotation
              JOINT RightHand
              {
                OFFSET 27.4588 0.290562 -0.101845
                CHANNELS 3 Zrotation Xrotation Yrotation
                End Site
                {
                  OFFSET 17.8396 -0.255518 -0.000602873
                }
              }
            }
          }
        }
      }
    }
  }
  JOINT LeftUpLeg
  {
    OFFSET -5.61296 -2.22332 -10.2353
    CHANNELS 3 Zrotation Xrotation Yrotation
    JOINT LeftLeg
    {
      OFFSET 2.56703 -44.7417 -7.93097
      CHANNELS 3 Zrotation Xrotation Yrotation
      JOINT LeftFoot
      {
        OFFSET 3.16933 -46.5642 -3.96578
        CHANNELS 3 Zrotation Xrotation Yrotation
        JOINT LeftToeBase
        {
          OFFSET 0.346054 -6.02161 12.8035
          CHANNELS 3 Zrotation Xrotation Yrotation
          End Site
          {
            OFFSET 0.134235 -1.35082 5.13018
          }
        }
      }
    }
  }
  JOINT RightUpLeg
  {
    OFFSET -5.7928 -1.72406 10.6446
    CHANNELS 3 Zrotation Xrotation Yrotation
    JOINT RightLeg
    {
      OFFSET -2.57161 -44.7178 -7.85259
      CHANNELS 3 Zrotation Xrotation Yrotation
      JOINT RightFoot
      {
        OFFSET -3.10148 -46.5936 -4.03391
        CHANNELS 3 Zrotation Xrotation Yrotation
        JOINT RightToeBase
        {
          OFFSET -0.0828122 -6.13587 12.8035
          CHANNELS 3 Zrotation Xrotation Yrotation
          End Site
          {
            OFFSET -0.131328 -1.35082 5.13018
          }
        }
      }
    }
  }
}
MOTION
Frames: 8
Frame Time: 0.03333333333333333
0.0000 93.1000 0.0000 91.7201 -14.8792 2.5484 -70.9204 0.0213 87.7899 51.9481 64.9511 37.0402 1.1360 19.8609 4.5633 -131.4388 46.1084 135.5141 -77.8105 73.9178 91.5884 -1.0744 -18.7332 -30.6469 -51.8812 27.9668 -142.0834 17.9695 -6.9353 -108.0367 0.2232 0.3246 0.0746 -2.1779 8.2033 34.6612 -132.5990 5.2334 75.2926 20.3650 -9.9892 65.4587 -0.0490 0.3338 -0.1224 -64.5280 10.8404 84.3728 -6.1430 56.3894 -14.2905 2.9016 -24.8717 -2.3591 3.7097 -12.4818 21.4043 -65.1935 -15.0209 79.6590 1.9627 53.1962 -3.7456 -6.3698 -19.9695 1.5608 2.3623 -12.9712 -22.8412 
0.0000 93.1000 0.0000 91.4902 -14.9022 1.3692 -70.9258 0.0179 87.8074 52.0085 64.9542 37.7093 0.9038 19.4973 4.8607 -132.6361 45.8982 135.8841 -77.6171 74.2638 92.2078 -1.0042 -18.6099 -30.0133 -52.9367 27.8082 -143.4491 18.8997 -7.0089 -108.1134 0.0141 0.3106 0.1919 -2.1085 7.9469 33.6368 -132.6682 4.4272 75.0430 20.0230 -9.3702 66.5624 -0.0273 0.3072 -0.3451 -64.0620 11.2609 84.7797 -5.5797 54.8941 -14.5625 2.9229 -24.5023 -2.3093 3.8531 -12.0691 21.9972 -65.1810 -15.2631 78.7718 1.8249 52.2136 -4.9129 -5.7815 -19.6816 1.4717 1.9954 -13.1442 -17.0811 
0.0000 93.1000 0.0000 90.8144 -14.7911 1.0871 -70.9253 0.0090 87.8262 53.8920 64.9887 34.8415 0.5486 19.2904 5.0976 -131.1441 45.6359 135.9511 -76.5296 74.9886 93.1133 -0.9118 -18.6083 -29.3318 -52.1877 27.7796 -144.4233 18.8646 -6.8420 -107.0973 -0.1004 0.2602 0.1448 -2.1466 7.2772 34.1535 -132.7993 3.9920 75.6742 20.2608 -8.7830 67.5610 0.0916 0.2906 -0.1175 -63.9764 11.0661 84.5319 -5.9019 53.9016 -14.3770 2.8580 -23.9851 -2.3670 3.9722 -13.1117 20.8134 -64.7256 -16.1911 78.0689 2.0099 51.5621 -5.1633 -5.1239 -19.3002 1.3849 1.3981 -13.1365 -15.8014 
0.0000 93.1000 0.0000 89.8262 -14.4786 1.4915 -70.9503 0.0193 87.8440 54.3453 64.9566 32.7327 1.0327 18.7657 6.1974 -131.7807 45.4386 136.1921 -78.0521 76.1400 93.0162 -0.8042 -17.6874 -29.2751 -52.7443 28.0964 -145.1337 18.9389 -6.2776 -106.3731 0.2211 0.2744 -0.0404 -2.1037 6.9635 35.0648 -133.6104 4.1162 76.2348 18.7532 -8.0130 68.4738 0.1780 0.3510 -0.0239 -63.2121 11.1818 84.7049 -5.8111 53.1654 -14.5554 2.9318 -22.6278 -2.4258 4.2965 -12.8572 19.8907 -64.1722 -16.0508 78.2356 2.6920 50.6156 -5.2890 -6.5147 -18.3978 1.3529 1.7346 -12.4253 -13.6682 
0.0000 93.1000 0.0000 87.8573 -14.5357 0.7312 -70.9547 -0.1344 87.8911 53.7692 65.0755 31.0900 0.7270 17.9447 7.4623 -132.9427 44.8108 138.4490 -79.8527 77.0918 95.6425 0.0121 -17.7034 -28.4382 -53.2110 28.1231 -146.1789 20.0262 -6.1329 -105.7371 -0.1651 -0.5084 0.5505 -2.0912 6.3657 35.5030 -134.4470 3.7243 78.0130 17.8750 -7.1061 70.5013 0.7240 -0.5375 0.3294 -62.7442 11.0043 85.7566 -4.6571 51.0139 -15.4690 2.4594 -20.6851 -1.4744 3.8278 -12.5715 17.9104 -62.8020 -15.4848 78.0865 1.4732 48.5046 -3.6697 -5.4292 -16.4599 0.6022 1.8481 -12.8745 -14.1404 
0.0000 93.1000 0.0000 85.2985 -15.2790 -0.0797 -70.9475 -0.0451 87.8931 55.9191 65.3446 27.9038 0.6910 16.7863 9.2066 -132.5827 44.5429 140.0073 -83.1356 78.7815 98.2102 -0.5145 -17.7555 -28.2465 -54.0091 27.6717 -147.3804 21.1878 -6.6853 -104.3492 -0.2088 -0.0095 0.2462 -2.0705 5.9214 36.1286 -134.6065 3.5800 79.4966 17.0334 -5.9958 72.7055 0.0248 0.0344 0.2085 -62.1907 11.1667 85.5950 -4.5541 47.9274 -13.9960 1.0748 -19.7907 -1.7518 4.0120 -12.5406 15.7024 -60.9075 -14.7369 78.3997 1.7763 46.4050 -3.7248 -3.8576 -15.8409 0.7355 1.9276 -12.5344 -15.0790 
0.0000 93.1000 0.0000 83.1027 -16.0786 -1.1050 -70.9610 -0.0242 87.9269 56.5649 65.9878 26.0714 1.3600 16.3453 10.0048 -132.6549 44.1115 142.9346 -86.4779 80.9959 103.0711 -0.5276 -17.0039 -27.4529 -54.9388 28.1663 -148.7652 21.0991 -6.3340 -103.3483 -0.0707 0.1288 0.2500 -2.0592 5.9131 37.1740 -134.8402 3.7616 80.7732 16.4482 -5.1554 75.0273 -0.2712 0.2031 0.4241 -61.0805 10.9534 86.5053 -3.7244 45.8856 -13.6538 0.5624 -18.1559 -1.7982 4.2608 -11.5898 14.1048 -59.8338 -14.4564 77.8342 1.8199 44.1399 -3.5164 -2.8893 -14.8616 0.7202 1.6730 -11.2042 -13.6264 
0.0000 93.1000 0.0000 81.2162 -16.7903 -1.0022 -70.9802 -0.0581 87.9694 59.5935 66.2814 23.4455 2.2371 16.0058 9.0985 -132.7461 43.9579 144.1191 -93.0632 83.6469 107.9123 -0.2598 -16.5758 -27.3012 -55.8073 29.1823 -150.4450 22.3525 -5.9668 -103.1609 -0.0182 -0.0334 0.4558 -2.0336 5.5020 38.0861 -135.5522 2.9757 80.9382 16.8249 -4.2448 77.7127 0.0023 -0.0526 0.1266 -59.2098 11.2227 88.2112 -3.9832 43.9194 -13.4242 0.0119 -17.2568 -1.5460 4.0595 -11.9083 13.3140 -57.9375 -13.9640 78.0768 1.1811 41.4573 -3.2227 -2.3988 -11.7599 0.4960 1.6904 -11.8890 -12.8650 
